PathFileType	4	(X/Y/Z)	Patient4_TMGait_0pt4_01_right_01.trc.trc
DataRate	CameraRate	NumFrames	NumMarkers	Units	OrigDataRate	OrigDataStartFrame	OrigNumFrames
78.212290502793	78.212290502793	4	33	mm	78.212290502793	106	       141
Frame#	Time	Sacral			L.Shoulder			Chest			R.Shoulder			Neck			R.ASIS			L.ASIS			R.Thigh.Superior			R.Thigh.Lateral			R.Thigh.Inferior			R.Patella			L.Thigh.Superior			L.Thigh.Lateral			L.Thigh.Inferior			L.Patella			L.Shank.Superior			L.Shank.Lateral			L.Shank.Inferior			R.Shank.Superior			R.Shank.Lateral			R.Shank.Inferior			R.Heel			R.Midfoot.Superior			R.Midfoot.Lateral			R.Toe			L.Heel			L.Midfoot.Lateral			L.Midfoot.Superior			L.Toe			L.Elbow			L.Wrist			R.Elbow			R.Wrist			
		X1	Y1	Z1	X2	Y2	Z2	X3	Y3	Z3	X4	Y4	Z4	X5	Y5	Z5	X6	Y6	Z6	X7	Y7	Z7	X8	Y8	Z8	X9	Y9	Z9	X10	Y10	Z10	X11	Y11	Z11	X12	Y12	Z12	X13	Y13	Z13	X14	Y14	Z14	X15	Y15	Z15	X16	Y16	Z16	X17	Y17	Z17	X18	Y18	Z18	X19	Y19	Z19	X20	Y20	Z20	X21	Y21	Z21	X22	Y22	Z22	X23	Y23	Z23	X24	Y24	Z24	X25	Y25	Z25	X26	Y26	Z26	X27	Y27	Z27	X28	Y28	Z28	X29	Y29	Z29	X30	Y30	Z30	X31	Y31	Z31	X32	Y32	Z32	X33	Y33	Z33	

106	2.152500000000	850.275339203815	1011.959988391166	432.790843353773	1052.378254782602	1431.475232476402	235.027039046782	1145.210561239478	1365.275503061339	401.960011955957	1060.009390758443	1448.669143454717	571.024968731838	1047.375387115374	1499.729170798895	387.345011823178	1079.344288221547	953.009831248241	552.702605966363	1067.210132799701	965.223051876493	278.080712809679	1166.301043934395	790.383776821202	523.185899323849	1134.998197094745	670.330990304593	604.777611419279	1223.129139822315	632.840287356419	523.758471157169	1252.386763091414	529.821958298873	550.088375827336	1100.236568450787	745.892344937484	311.589432140535	999.205559019997	637.458686952620	252.965009768706	1071.874916977154	553.562643208557	320.031545394039	1064.038826097772	487.074805462507	332.300393528045	1037.990488931402	417.502229379748	323.598587352014	946.461195026666	304.255090485464	276.095677672497	993.652725526949	193.276298253843	349.752164177411	1195.091825798110	444.210115308168	562.806476852158	1091.770584891554	375.976956290367	629.559433524644	1106.969128317154	265.002602014363	584.693827240494	930.493619386415	155.155709888163	564.653875260664	1108.590750017790	138.265427921653	605.792051874052	1002.145571403358	113.006200093232	639.133990622732	1195.700824052748	42.273474825860	631.895005572959	863.302936623869	39.275284867207	396.548750360802	934.075968064285	35.894584796512	313.177150938419	1019.444452711427	96.383001127077	336.849549662992	1146.058504616271	41.685440310651	302.715759508235	1025.424641216717	1082.763292792490	109.100667626891	1210.947267173530	900.319111122351	118.753603570056	968.578929572266	1120.570278558232	709.397312713054	976.215855965810	865.083068381593	755.081811555275	
107	2.165285714286	849.788017947177	1012.141253387885	431.552506870054	1054.472306992773	1431.195030608961	234.969577607621	1145.421754752053	1365.086189175706	402.944924463155	1058.784663612831	1449.008685677004	571.197702656825	1047.839786735565	1499.644311034148	387.144334090884	1078.063231124981	953.176184832893	553.516015188124	1068.018584840870	965.137778985218	278.613835678210	1164.627655370514	790.429453849553	523.869344470847	1133.034437058812	670.376730246006	605.686990751933	1220.750507805835	632.543502798210	524.656049284065	1251.045922787650	531.693024443806	550.921109527627	1098.582584399537	745.086340886570	312.594392593211	996.878478321084	637.399778321970	252.824581350501	1068.315754532384	552.928032805169	320.262037206262	1059.895164079448	486.658567105721	332.350980079525	1033.783921959314	417.212755421685	323.590966157849	942.047538390378	304.194775791815	275.957190968063	988.707644945325	193.120370897185	349.772252885857	1198.051989309368	444.850090436021	563.811728955464	1099.735794154564	370.862165498323	631.597899492900	1120.741967424810	261.024945120173	586.182075484167	950.806877282919	141.138191310735	567.549285098161	1129.994975593087	134.378322677312	606.961274045424	1025.484115358524	103.243003348303	641.443059861011	1222.690632094722	43.816579647932	632.464062320842	858.166991552269	39.273470811262	396.488496930656	928.921171811350	35.857641213215	313.140956030306	1014.296651610757	96.363981640212	336.822538610420	1140.909617124422	41.655889791096	302.721831702468	1031.495091822003	1082.830428844801	107.828879927782	1221.442468771274	905.349248736145	119.333640323142	959.947426469361	1123.798497065095	710.064935519790	962.312899980968	868.787680117404	758.393886040799	
108	2.178071428571	849.398660394282	1012.206733707541	430.496250180704	1056.418598135852	1430.804493085955	235.063470954924	1145.628141862342	1364.805568754754	403.990566470230	1057.672598772555	1449.232266238019	571.472290759218	1048.277583577006	1499.452048915747	387.078730807870	1076.907987033269	953.142416106355	554.430605348776	1068.895336173800	964.968297089365	279.229807612599	1162.625141297317	789.770718454876	524.802719990135	1130.331385461270	669.887563966723	606.828837353047	1217.563000245318	631.460768717444	525.814605032951	1248.725955362473	532.986182592540	551.877086896544	1096.949712265189	744.251886984445	313.662159843098	994.662907891302	637.286502514478	252.739356825992	1064.920148955003	552.273655049862	320.499228967446	1055.938129064052	486.198847533278	332.394693566247	1029.707158921932	416.871818115608	323.602490224744	937.713229146157	304.121885783541	275.837575211831	983.820758746857	192.928235871469	349.781330167392	1200.315645807783	445.228163824533	564.955130042626	1107.590443914936	365.606614098044	633.882606682463	1134.527652483775	257.287525529906	587.802742933548	972.017030834614	127.532384266940	570.583417880234	1151.733446595322	130.991795061517	608.170651224529	1049.535615201288	94.029177464768	643.785690690204	1249.737387090747	46.131059367694	632.910273196816	853.033240316507	39.265338603536	396.429096052772	923.765688668369	35.814567334361	313.102708766240	1009.144577915858	96.335914788762	336.797108744435	1135.761110709508	41.615902895457	302.729223659129	1037.507990060838	1082.776037240983	106.878717127837	1231.611418071903	910.220587512140	120.211871757935	951.900863480696	1126.857918284474	710.579631101134	949.460290900667	872.329060603705	761.053979947880	
109	2.190857142857	849.126127299555	1012.140975955471	429.640788475838	1058.187350122966	1430.314149611682	235.317110752574	1145.829554015630	1364.435909392139	405.093501655448	1056.665115873865	1449.315476941236	571.832983954522	1048.686114550977	1499.154379141333	387.164120403184	1075.907011328384	952.907635680401	555.426364922579	1069.806811587266	964.693015642189	279.925514546581	1160.330929788351	788.406942676688	525.997760675603	1126.940882735741	668.882155631163	608.200094108103	1213.643407136785	629.632793778638	527.220124300761	1245.493932500841	533.699258277748	552.923485500973	1095.369605800843	743.389130556240	314.748141810884	992.568462711505	637.118814210480	252.711743893836	1061.708899819425	551.599178707940	320.735975454861	1052.189587220931	485.693213958373	332.430959915708	1025.773802806318	416.478798408027	323.633871767554	933.466692113675	304.042487163536	275.735055338103	978.995451467307	192.700952749120	349.773847138269	1201.867754820486	445.384572943556	566.216881778092	1115.216948755330	360.377436508205	636.347372381907	1148.099728355654	253.952194495276	589.496573370062	993.778880352129	114.692026544106	573.635274596149	1173.451619373448	128.279562309622	609.353111551691	1073.906998630852	85.616401395875	646.042051214098	1276.398588745372	49.294547879666	633.143811593365	847.898759285132	39.256176519691	396.371345578748	918.610068172684	35.766971018233	313.061744261638	1003.989386836101	96.297800283965	336.771609330999	1130.614804259839	41.561968433726	302.735936538806	1043.437945209861	1082.609042670841	106.257606366980	1241.429169606869	914.915057499383	121.378871185400	944.462790867544	1129.689618012169	710.944826056102	937.656186295152	875.619447897979	763.119458015885	
